<?xml version="1.0" standalone="no"?>
<!DOCTYPE svg PUBLIC "-//W3C//DTD SVG 20010904//EN"
 "http://www.w3.org/TR/2001/REC-SVG-20010904/DTD/svg10.dtd">
<svg version="1.0" xmlns="http://www.w3.org/2000/svg"
 width="490.000000pt" height="220.000000pt" viewBox="0 0 490.000000 220.000000"
 preserveAspectRatio="xMidYMid meet">

<g transform="translate(0.000000,220.000000) scale(0.100000,-0.100000)"
fill="#000000" stroke="none">
<path d="M876 2004 c-68 -21 -146 -101 -172 -174 -17 -51 -19 -88 -19 -470 0
-374 2 -420 18 -467 23 -65 84 -135 145 -165 l47 -23 1175 -5 1175 -5 305
-304 c168 -166 315 -307 328 -312 73 -28 156 3 189 71 21 42 23 58 23 252 0
114 4 217 9 230 5 13 19 33 30 46 21 21 30 22 164 23 163 0 199 10 277 74 62
51 86 95 99 175 13 79 14 720 2 807 -13 84 -43 139 -104 191 -94 78 52 72
-1896 71 -1522 0 -1752 -2 -1795 -15z m3615 -99 c26 -18 53 -50 68 -80 l26
-49 3 -366 c2 -201 1 -393 -3 -428 -8 -76 -51 -146 -110 -179 -36 -20 -54 -23
-175 -23 -158 0 -195 -8 -237 -52 -44 -47 -54 -108 -53 -331 1 -183 1 -190
-21 -213 -16 -17 -34 -24 -58 -24 -33 0 -55 19 -332 298 -242 243 -304 300
-337 310 -29 9 -329 12 -1189 12 l-1149 0 -44 23 c-53 26 -99 88 -111 148 -12
63 -11 745 1 810 13 69 53 126 109 156 l44 23 1763 -2 1762 -3 43 -30z"/>
</g>
</svg>
